<svg id="Group_17" data-name="Group 17" xmlns="http://www.w3.org/2000/svg" width="153.858" height="42.413" viewBox="0 0 153.858 42.413">
  <g id="Component_3_4" data-name="Component 3 – 4">
    <g id="Group_16" data-name="Group 16">
      <g id="Group_15" data-name="Group 15" transform="translate(48.373 6.198)">
        <path id="Path_36" data-name="Path 36" d="M338.325,283.307h7.257c7.465,0,12.673-5.695,12.673-13.056,0-7.465-5.069-13.125-12.639-13.125h-7.292v26.181Zm5.1-21.736h.833c5.8,0,8.715,2.951,8.715,8.646,0,5.173-2.431,8.646-8.715,8.646h-.833V261.57Z" transform="translate(-338.325 -256.432)" fill="#008143" fill-rule="evenodd"/>
        <path id="Path_37" data-name="Path 37" d="M418.544,261.57v-4.444H405v26.181h13.542v-4.444h-8.438v-7.084h8.125v-4.444h-8.125V261.57Z" transform="translate(-381.852 -256.432)" fill="#008143"/>
        <path id="Path_38" data-name="Path 38" d="M572.738,282l9.806-25.226a2.574,2.574,0,0,1,2.4-1.649,2.541,2.541,0,0,1,2.4,1.648L596.835,282h-5.451l-2.014-5.521h-9.1L578.12,282Zm8.993-9.688,3.177-9.479h.07l2.969,9.479Z" transform="translate(-491.35 -255.126)" fill="#008143" fill-rule="evenodd"/>
        <path id="Path_39" data-name="Path 39" d="M461.955,268.167h-.07V257.126h-5.1v26.181h5.1V271.536h.07l8.368,11.771h6.562l-10.486-14.1,9.93-12.083h-6.285l-8.09,11.041Z" transform="translate(-415.653 -256.432)" fill="#008143"/>
        <path id="Path_40" data-name="Path 40" d="M529.565,261.292h-2.726v7.882h2.726a3.951,3.951,0,0,0,0-7.882Zm2.7,11.3,7.177,10.716h-6.18l-6.424-10.556v10.556h-5.1V257.126h8.785a7.831,7.831,0,0,1,1.746,15.465Z" transform="translate(-458.055 -256.432)" fill="#008143"/>
      </g>
      <path id="Path_41" data-name="Path 41" d="M207.195,237.5l22.122,12.807a6.835,6.835,0,0,1,0,11.822L199,279.689v-7.881l26.914-15.584-14.465-8.374v11.822l-6.807,3.941,0-24.63a1.7,1.7,0,0,1,2.551-1.478Z" transform="translate(-199 -237.275)" fill="#008143"/>
    </g>
  </g>
</svg>
