<?xml version="1.0" encoding="utf-8"?>
<!-- Generator: Adobe Illustrator 26.0.1, SVG Export Plug-In . SVG Version: 6.00 Build 0)  -->
<svg version="1.1" id="Ebene_1" xmlns="http://www.w3.org/2000/svg" xmlns:xlink="http://www.w3.org/1999/xlink" x="0px" y="0px"
	 viewBox="0 0 841.9 595.3" style="enable-background:new 0 0 841.9 595.3;" xml:space="preserve">
<style type="text/css">
	.st0{fill:#008143;}
</style>
<g>
	<g>
		<path class="st0" d="M616.9,303.9H599l9.2-27.3h0.2L616.9,303.9z M642.5,331.8l-27.3-72.7c-1.2-3.1-4-4.7-6.9-4.7
			c-2.9,0-5.7,1.7-6.9,4.7l-28.2,72.7h15.5l6.2-15.9H621l5.8,15.9H642.5z"/>
		<path class="st0" d="M552.4,301l20.7,30.9h-17.8l-18.5-30.4v30.4h-14.7v-75.4h25.3c12.5,0,22.6,10.1,22.6,22.6
			C570,289.7,562.5,298.7,552.4,301 M544.7,268.4h-7.9v22.7h7.9c5.8,0,10.6-5.1,10.6-11.4C555.2,273.5,550.5,268.4,544.7,268.4"/>
		<polygon class="st0" points="472.1,288.2 471.9,288.2 471.9,256.4 457.2,256.4 457.2,331.8 471.9,331.8 471.9,297.9 472.1,297.9 
			496.2,331.8 515.1,331.8 484.9,291.2 513.5,256.4 495.4,256.4 		"/>
		<polygon class="st0" points="444.4,269.2 444.4,256.4 405.4,256.4 405.4,331.8 444.4,331.8 444.4,319 420.1,319 420.1,298.6 
			443.5,298.6 443.5,285.8 420.1,285.8 420.1,269.2 		"/>
		<path class="st0" d="M353.4,269.2h2.4c16.7,0,25.1,8.5,25.1,24.9c0,14.9-7,24.9-25.1,24.9h-2.4V269.2z M338.7,331.8h20.9
			c21.5,0,36.5-16.4,36.5-37.6c0-21.5-14.6-37.8-36.4-37.8h-21V331.8z"/>
	</g>
	<path class="st0" d="M223,237.2l63.7,36.9c4.9,2.8,9.8,9,9.8,17c0,8.2-4.9,14.2-9.8,17l-87.3,50.6V336l77.5-44.9L235.2,267v34.1
		l-19.6,11.3l0-70.9c0-1.7,0.9-3.4,2.4-4.3C219.5,236.4,221.3,236.3,223,237.2"/>
</g>
</svg>
